# xmcd CD database file generated by LOLA_Freedb v0.9beta0
# 
# Track frame offsets:
#      150
#      14276
#      27829
#      38476
#      54817
#      69501
#      81924
#      94323
#      106242
#      121014
#      134913
# 
# Disc length: 1990 seconds
# 
# Revision: 0 
# Processed by: cddbd v1.5.2PL0 Copyright (c) Steve Scherf et al.
# Submitted via: LOLA_Freedb v0.9beta0
# 
DISCID=8607c40b
DTITLE=Amtthew Moore - The Sport Of Guessing
DYEAR=1979
DGENRE=
TTITLE0=Space Captain
TTITLE1=Be My Love Tonight
TTITLE2=I Broke Down
TTITLE3=Tortuga
TTITLE4=Goodbye
TTITLE5=Leave Me Be
TTITLE6=I Gotta Be With You
TTITLE7=That's What I Like
TTITLE8=I Give In
TTITLE9=Just In Time
TTITLE10=Hold On To Me
EXTD=
EXTT0=
EXTT1=
EXTT2=
EXTT3=
EXTT4=
EXTT5=
EXTT6=
EXTT7=
EXTT8=
EXTT9=
EXTT10=
PLAYORDER=
